<?xml version="1.0" encoding="iso-8859-1"?>
<!-- Uploaded to: SVG Repo, www.svgrepo.com, Generator: SVG Repo Mixer Tools -->
<svg fill="#000000" height="800px" width="800px" version="1.1" id="Layer_1" xmlns="http://www.w3.org/2000/svg" xmlns:xlink="http://www.w3.org/1999/xlink" 
	 viewBox="0 0 512 512" xml:space="preserve">
<g>
	<g>
		<polygon points="298.363,480.653 289.598,393.927 222.401,393.927 213.636,480.653 195.66,480.653 195.66,512 210.469,512 
			301.53,512 316.339,512 316.339,480.653 		"/>
	</g>
</g>
<g>
	<g>
		<path d="M271.334,9.572V0h-31.347v9.729c-29.594,7.213-51.632,33.93-51.632,65.713c0,0.214,0.004,0.426,0.011,0.644l0.142,15.361
			h15.984l10.164,93.21h25.669v180.207h31.347V184.656h25.67l10.164-93.21h15.984l0.142-15.358c0.007-0.215,0.011-0.429,0.011-0.647
			C323.643,43.418,301.268,16.541,271.334,9.572z"/>
	</g>
</g>
</svg>