<?xml version="1.0" encoding="iso-8859-1"?>
<!-- Uploaded to: SVG Repo, www.svgrepo.com, Generator: SVG Repo Mixer Tools -->
<svg height="800px" width="800px" version="1.1" id="Layer_1" xmlns="http://www.w3.org/2000/svg" xmlns:xlink="http://www.w3.org/1999/xlink" 
	 viewBox="0 0 512 512" xml:space="preserve">
<path style="fill:#6C6A70;" d="M263.758,139.636h201.697c12.853,0,23.273-10.42,23.273-23.273C488.727,52.201,436.527,0,372.364,0
	h-15.515c-37.987,0-71.776,18.302-93.027,46.545h-77.639c-64.163,0-116.364,52.201-116.364,116.364v302.545H46.545
	c-12.853,0-23.273,10.42-23.273,23.273S33.693,512,46.545,512h46.545h46.545c12.853,0,23.273-10.42,23.273-23.273
	s-10.42-23.273-23.273-23.273h-23.273V162.909c0-38.498,31.32-69.818,69.818-69.818h56.646c-1.533,7.522-2.343,15.304-2.343,23.273
	C240.485,129.216,250.905,139.636,263.758,139.636z"/>
<path style="fill:#57575C;" d="M186.182,46.545c-64.163,0-116.364,52.201-116.364,116.364v302.545H46.545
	c-12.853,0-23.273,10.42-23.273,23.273S33.693,512,46.545,512h46.545h46.545c12.853,0,23.273-10.42,23.273-23.273
	s-10.42-23.273-23.273-23.273h-23.273V162.909c0-38.498,31.32-69.818,69.818-69.818h56.646c-1.533,7.522-2.343,15.304-2.343,23.273
	c0,10.128,6.482,18.722,15.515,21.92V46.545H186.182z"/>
</svg>