<?xml version="1.0" encoding="iso-8859-1"?>
<!-- Uploaded to: SVG Repo, www.svgrepo.com, Generator: SVG Repo Mixer Tools -->
<svg height="800px" width="800px" version="1.1" id="Layer_1" xmlns="http://www.w3.org/2000/svg" xmlns:xlink="http://www.w3.org/1999/xlink" 
	 viewBox="0 0 512 512" xml:space="preserve">
<path style="fill:#FFC473;" d="M315.779,59.779c0,32.967-26.812,59.779-59.779,59.779s-59.779-26.812-59.779-59.779
	C196.221,26.823,223.033,0,256,0S315.779,26.823,315.779,59.779z"/>
<path style="fill:#FFA91F;" d="M315.779,59.779c0,32.967-26.812,59.779-59.779,59.779V0C288.966,0,315.779,26.823,315.779,59.779z"
	/>
<polygon style="fill:#AEADB3;" points="317.304,114.939 317.304,146.286 271.673,146.286 271.673,377.407 240.327,377.407 
	240.327,146.286 194.696,146.286 194.696,114.939 "/>
<polygon style="fill:#8B8892;" points="317.304,114.939 317.304,146.286 271.673,146.286 271.673,377.407 256.334,377.407 
	256.334,114.939 "/>
<polygon style="fill:#0082D2;" points="316.343,480.653 316.343,512 195.657,512 195.657,480.653 203.17,480.653 215.186,361.733 
	296.814,361.733 308.83,480.653 "/>
<polygon style="fill:#005C94;" points="316.343,480.653 316.343,512 256.334,512 256.334,361.733 296.814,361.733 308.83,480.653 
	"/>
</svg>